<?xml version="1.0" standalone="no"?>
<!DOCTYPE svg PUBLIC "-//W3C//DTD SVG 20010904//EN"
 "http://www.w3.org/TR/2001/REC-SVG-20010904/DTD/svg10.dtd">
<svg version="1.0" xmlns="http://www.w3.org/2000/svg"
 width="195.000000pt" height="139.000000pt" viewBox="0 0 195.000000 139.000000"
 preserveAspectRatio="xMidYMid meet">

<g transform="translate(0.000000,139.000000) scale(0.100000,-0.100000)"
fill="#000000" stroke="none">
<path d="M316 1288 c-12 -29 -58 -140 -102 -246 -73 -179 -82 -195 -114 -212
l-35 -19 73 -1 c39 0 72 2 72 5 0 3 -13 11 -29 17 l-29 13 25 63 25 62 89 0
89 0 32 -66 c25 -52 39 -70 65 -80 38 -17 151 -19 118 -3 -14 7 -52 86 -125
261 -58 138 -111 253 -118 256 -7 2 -22 -18 -36 -50z m23 -208 l39 -95 -80 -3
c-44 -2 -82 -1 -84 1 -2 2 10 37 27 78 17 41 35 85 40 98 5 13 12 22 14 19 2
-2 22 -46 44 -98z"/>
<path d="M1176 1274 c-9 -8 -16 -31 -16 -50 0 -30 -3 -34 -25 -34 -14 0 -25
-4 -25 -10 0 -5 11 -10 24 -10 l25 0 3 -146 3 -146 37 -33 c68 -63 176 -57
204 11 17 40 18 54 4 54 -5 0 -10 -10 -10 -23 0 -31 -35 -67 -64 -67 -49 0
-56 23 -56 193 l0 157 50 0 c28 0 50 5 50 10 0 6 -22 10 -50 10 l-50 0 0 50 0
50 -44 0 c-27 0 -51 -6 -60 -16z"/>
<path d="M1601 1190 c-76 -18 -123 -76 -129 -160 -8 -113 21 -174 103 -211 69
-32 175 -19 227 28 56 49 75 170 39 249 -37 81 -134 119 -240 94z m80 -10 c68
-37 79 -285 15 -348 -54 -55 -98 6 -104 143 -5 99 8 165 39 196 22 22 24 22
50 9z"/>
<path d="M620 1186 c0 -4 11 -11 25 -16 l25 -10 0 -141 0 -142 35 -33 c58 -55
139 -57 190 -6 24 23 28 25 38 11 16 -21 51 -39 76 -39 20 0 21 5 21 179 0
176 0 179 23 187 17 6 10 8 -31 11 -28 2 -76 2 -105 0 -40 -3 -47 -5 -29 -11
21 -8 22 -12 22 -156 0 -146 0 -148 -26 -174 -30 -29 -37 -31 -64 -16 -29 15
-40 73 -40 206 0 99 -3 124 -16 135 -16 13 -144 27 -144 15z"/>
<path d="M208 710 c12 -5 25 -16 28 -23 3 -8 -18 -101 -46 -208 -70 -265 -67
-258 -102 -272 -52 -21 282 -15 354 6 84 25 155 86 197 169 88 177 25 321
-146 334 -35 2 -48 1 -34 -4 42 -13 65 -56 69 -130 6 -115 -38 -256 -102 -325
-43 -46 -134 -74 -152 -46 -3 6 22 119 57 251 52 200 66 241 83 248 13 6 -27
9 -104 9 -85 0 -118 -3 -102 -9z"/>
<path d="M1354 693 l-52 -4 -14 -52 c-14 -50 -16 -52 -54 -58 l-39 -5 36 -5
37 -4 -39 -130 c-54 -183 -51 -234 16 -251 36 -9 92 14 115 46 26 37 26 50 -1
16 -21 -27 -59 -36 -59 -13 0 6 21 85 47 175 l47 162 40 2 41 1 -37 4 c-43 5
-43 5 -23 63 18 52 19 61 3 58 -7 -1 -36 -3 -64 -5z"/>
<path d="M782 577 c-21 -10 -63 -74 -62 -94 1 -4 10 9 21 30 18 34 37 46 51
32 3 -3 -14 -67 -39 -143 -50 -156 -51 -190 -10 -210 58 -28 129 14 173 100
14 28 27 48 29 46 2 -1 -2 -24 -7 -50 -14 -61 -1 -94 40 -103 59 -12 120 31
136 95 3 14 -3 6 -14 -18 -13 -29 -25 -42 -40 -42 -11 0 -20 2 -20 5 0 2 22
84 50 181 27 98 49 178 47 179 -1 0 -29 -1 -62 -3 l-60 -4 -33 -95 c-51 -149
-113 -263 -144 -263 -15 0 -8 36 32 155 46 138 50 177 18 199 -26 18 -73 20
-106 3z"/>
<path d="M1501 573 c-23 -15 -23 -17 -5 -23 16 -7 24 -37 52 -205 36 -219 36
-219 -29 -245 -26 -11 -32 -10 -64 19 -20 17 -46 31 -59 31 -28 0 -56 -29 -56
-58 0 -49 80 -53 169 -8 56 29 167 143 199 206 12 25 17 37 10 26 -46 -67 -43
-70 -62 75 -18 137 -33 182 -61 193 -29 11 -70 6 -94 -11z"/>
<path d="M1694 565 c-22 -34 -10 -78 33 -120 34 -33 34 -33 18 -65 -9 -18 -15
-34 -12 -36 9 -10 49 102 54 153 5 43 2 57 -12 73 -25 27 -61 25 -81 -5z"/>
<path d="M1452 491 c-6 -17 -9 -31 -6 -31 7 0 25 52 20 57 -2 2 -8 -10 -14
-26z"/>
</g>
</svg>
